<svg version="1.0" xmlns="http://www.w3.org/2000/svg" width="119.000000pt" height="107.000000pt" viewBox="0 0 119.000000 107.000000" preserveAspectRatio="xMidYMid meet">
  <g transform="translate(0.000000,107.000000) scale(0.100000,-0.100000)" fill="currentColor" stroke="none">
    <path d="M593 946 l-28 -25 33 -59 c17 -33 32 -66 31 -73 0 -8 -7 2 -16 21 -33 77 -62 86 -143 45 -33 -17 -50 -32 -52 -47 -2 -13 -9 -22 -17 -20 -25 6 -68 -19 -80 -45 -7 -16 -11 -69 -10 -137 1 -60 -2 -111 -7 -113 -13 -4 -37 37 -43 76 -8 47 -31 60 -66 37 -25 -16 -27 -23 -22 -62 4 -41 3 -44 -19 -44 -35 0 -54 -26 -54 -73 1 -61 28 -110 65 -118 17 -3 47 -13 69 -23 21 -9 47 -16 57 -16 12 0 19 -7 19 -18 0 -29 29 -62 56 -62 13 0 24 -6 24 -13 0 -47 94 -64 134 -24 22 22 29 23 97 18 64 -6 78 -10 102 -35 25 -25 34 -28 70 -23 23 3 49 14 57 25 15 18 16 18 39 -4 50 -47 132 -39 161 15 11 22 9 139 -4 159 -4 8 -9 35 -10 60 -1 45 -37 122 -56 122 -5 0 -6 43 -3 94 8 122 -3 148 -71 183 -39 21 -65 27 -108 26 l-58 -1 0 36 c0 21 -9 56 -19 79 -31 66 -79 81 -128 39z m84 -18 c11 -13 24 -34 28 -48 3 -14 9 -33 11 -42 6 -21 -57 -59 -64 -39 -2 7 -16 37 -31 66 -25 49 -26 56 -12 70 21 21 44 19 68 -7z m-127 -66 c0 -10 -60 -36 -67 -28 -3 3 9 12 28 20 41 18 39 18 39 8z m40 -41 c5 -11 10 -24 10 -30 0 -19 -46 -12 -66 10 -16 17 -16 22 -4 29 24 15 49 11 60 -9z m-92 -11 c17 -11 32 -25 32 -31 0 -8 -6 -7 -17 3 -10 9 -28 21 -41 27 -20 10 -23 9 -32 -11 -8 -22 -9 -22 -9 -2 -2 39 18 44 67 14z m433 -99 c16 -20 19 -39 17 -120 -1 -89 -2 -92 -8 -36 l-7 60 -3 -55 c-3 -47 -5 -40 -10 40 l-6 95 -4 -95 -3 -95 -7 65 -7 65 -1 -57 c-2 -44 -6 -58 -17 -58 -12 0 -15 19 -15 112 0 92 -3 115 -17 131 -16 18 -13 18 26 -4 24 -13 52 -35 62 -48z m-496 48 c-33 -5 -66 -11 -72 -14 -10 -3 -13 -42 -13 -147 0 -102 -3 -139 -11 -131 -7 7 -9 57 -7 143 4 156 7 161 102 159 l61 -1 -60 -9z m383 -1 c12 -12 17 -68 6 -68 -19 0 -44 24 -44 44 0 35 16 46 38 24z m-65 -27 c-7 -27 14 -61 37 -61 19 0 20 -7 20 -115 0 -70 -4 -115 -10 -115 -6 0 -10 39 -10 98 0 98 0 98 -30 120 -16 13 -30 31 -30 42 0 19 -7 20 -141 20 l-140 0 -11 -30 c-5 -17 -19 -35 -29 -41 -16 -8 -19 -22 -19 -99 0 -53 -4 -90 -10 -90 -6 0 -10 41 -10 103 0 96 1 103 23 112 13 6 23 21 25 37 4 32 8 33 204 36 131 3 136 2 131 -17z m-35 -50 c6 -16 22 -37 36 -46 25 -16 26 -22 26 -106 0 -82 -2 -89 -20 -89 -17 0 -20 -7 -20 -50 0 -43 3 -50 20 -50 26 0 26 -17 -1 -25 -18 -6 -59 -59 -59 -77 0 -17 18 -6 28 17 7 14 23 30 37 37 14 6 25 19 25 30 0 10 5 18 10 18 6 0 10 -16 10 -35 0 -31 -3 -35 -25 -35 -26 0 -47 -32 -38 -57 6 -16 8 -16 -157 2 -74 8 -143 15 -152 15 -11 0 -18 10 -20 27 -2 17 -12 32 -25 38 -16 7 -23 18 -23 37 0 16 5 28 10 28 6 0 10 -8 10 -18 0 -9 9 -23 20 -30 12 -7 25 -23 30 -36 10 -27 32 -33 165 -40 l90 -5 -75 10 c-41 5 -94 12 -117 15 -27 3 -43 10 -43 19 0 7 -14 27 -30 43 -34 34 -37 42 -15 42 11 0 15 12 15 50 0 38 -4 50 -15 50 -12 0 -15 16 -15 84 0 75 2 85 20 91 10 3 25 22 32 41 l12 34 122 0 122 0 10 -29z m109 -118 c-2 -21 -4 -6 -4 32 0 39 2 55 4 38 2 -18 2 -50 0 -70z m-587 4 c0 -20 10 -47 25 -67 27 -36 32 -79 13 -98 -9 -9 -7 -13 5 -18 9 -3 17 -11 17 -17 0 -19 -43 -57 -64 -57 -20 1 -20 1 -3 15 14 10 20 30 22 72 4 55 3 59 -30 90 -27 24 -35 40 -35 66 0 38 6 47 32 47 14 0 18 -8 18 -33z m676 -83 c19 -9 43 -28 53 -43 21 -30 43 -101 31 -101 -4 0 -10 14 -14 31 -10 51 -42 86 -99 108 -35 13 -44 20 -29 20 13 1 39 -6 58 -15z m-705 -10 c38 -19 33 -37 -12 -44 l-34 -6 38 -7 c48 -10 48 -32 0 -45 l-38 -10 33 -1 c44 -1 38 -25 -7 -29 -37 -4 -63 12 -54 34 3 8 1 14 -5 14 -6 0 -10 20 -10 45 0 63 30 80 89 49z m722 -54 c15 -17 27 -36 26 -43 0 -6 -6 -3 -12 7 -23 36 -48 57 -77 63 -17 3 -30 9 -30 14 0 17 66 -12 93 -41z m-523 -8 c0 -24 -2 -24 -46 -18 -58 8 -62 10 -57 39 5 23 7 23 54 14 43 -8 49 -13 49 -35z m494 -7 c18 -14 18 -15 -6 -24 -13 -5 -50 -12 -81 -16 l-57 -7 0 31 0 31 63 0 c38 -1 69 -6 81 -15z m-554 -99 c0 -44 5 -67 15 -76 8 -7 49 -16 91 -21 42 -4 79 -11 83 -15 3 -4 -23 -4 -58 0 -35 3 -75 6 -87 6 -44 0 -64 33 -64 105 0 37 4 65 10 65 6 0 10 -28 10 -64z m580 42 c0 -19 -2 -20 -10 -8 -7 11 -10 3 -12 -30 -1 -45 -1 -45 -5 -7 -3 21 1 45 8 53 16 19 19 18 19 -8z m-43 -60 c-3 -35 -11 -75 -18 -89 -24 -48 -102 -76 -128 -45 -9 10 -7 17 5 27 9 7 20 24 25 37 5 13 18 26 29 29 11 3 20 10 20 15 0 5 4 7 8 4 11 -6 3 -64 -9 -72 -5 -3 -9 -13 -9 -22 1 -13 6 -10 25 11 21 24 25 38 25 92 0 57 5 69 29 74 2 1 1 -27 -2 -61z m136 16 c26 -8 22 -38 -4 -31 l-21 6 21 -20 c14 -13 21 -32 21 -57 0 -47 -19 -75 -55 -79 -23 -3 -26 -1 -21 13 6 17 6 17 -13 0 -23 -21 -45 -12 -38 15 3 11 1 19 -4 19 -5 0 -9 -5 -9 -11 0 -5 -4 -7 -10 -4 -17 11 -11 43 10 50 11 3 20 13 20 21 0 8 -4 12 -10 9 -5 -3 -10 -2 -10 2 0 16 23 33 44 33 20 1 20 1 4 14 -10 7 -18 19 -18 26 0 12 41 9 93 -6z m-633 -44 c0 -5 -2 -10 -4 -10 -3 0 -8 5 -11 10 -3 6 -1 10 4 10 6 0 11 -4 11 -10z m110 -90 c0 -5 -17 -10 -37 -9 -31 0 -34 2 -18 9 28 12 55 12 55 0z"/>
    <path d="M468 671 c-29 -24 -23 -29 25 -23 41 5 47 16 18 32 -15 7 -25 5 -43 -9z"/>
    <path d="M646 675 c-21 -21 -20 -28 3 -20 10 3 31 1 46 -5 27 -10 28 -10 13 12 -19 29 -41 34 -62 13z"/>
    <path d="M623 604 c-20 -20 -24 -31 -19 -57 8 -42 33 -67 67 -67 57 0 79 81 34 125 -31 32 -50 31 -82 -1z m51 -19 c3 -8 -2 -22 -11 -30 -14 -15 -18 -15 -31 -1 -8 8 -12 22 -9 30 8 20 43 21 51 1z m26 -61 c0 -8 -4 -12 -10 -9 -5 3 -10 10 -10 16 0 5 5 9 10 9 6 0 10 -7 10 -16z"/>
    <path d="M449 604 c-19 -23 -16 -80 6 -104 10 -11 31 -20 47 -20 23 0 32 7 45 35 16 33 16 37 0 70 -14 30 -22 35 -51 35 -18 0 -39 -7 -47 -16z m51 -28 c0 -32 -18 -43 -37 -23 -20 20 -10 47 17 47 15 0 20 -7 20 -24z m30 -52 c0 -8 -4 -12 -10 -9 -5 3 -10 10 -10 16 0 5 5 9 10 9 6 0 10 -7 10 -16z"/>
    <path d="M538 443 c-42 -5 -44 -9 -24 -56 20 -47 50 -71 81 -63 30 8 65 60 65 99 0 25 -2 27 -42 25 -24 -1 -60 -3 -80 -5z m29 -50 c-9 -9 -20 -12 -28 -8 -9 6 -8 11 6 21 23 17 42 6 22 -13z m73 -3 c0 -15 -38 -50 -55 -50 -22 0 -18 27 7 44 26 18 48 21 48 6z"/>
  </g>
</svg>
